<mxfile host="app.diagrams.net" modified="2023-11-15T14:01:25.444Z" agent="Mozilla/5.0 (Windows NT 10.0; Win64; x64) AppleWebKit/537.36 (KHTML, like Gecko) Chrome/119.0.0.0 Safari/537.36 Edg/119.0.0.0" etag="4JDXIPq7wn8gA3b15ZvE" version="22.1.1" type="github">
  <diagram id="C5RBs43oDa-KdzZeNtuy" name="Page-1">
    <mxGraphModel dx="686" dy="501" grid="1" gridSize="10" guides="1" tooltips="1" connect="1" arrows="1" fold="1" page="1" pageScale="1" pageWidth="827" pageHeight="1169" math="0" shadow="0">
      <root>
        <mxCell id="WIyWlLk6GJQsqaUBKTNV-0" />
        <mxCell id="WIyWlLk6GJQsqaUBKTNV-1" parent="WIyWlLk6GJQsqaUBKTNV-0" />
        <mxCell id="3JCBX3vueUwo4qNt-_7R-6" value="" style="edgeStyle=orthogonalEdgeStyle;rounded=0;orthogonalLoop=1;jettySize=auto;html=1;" edge="1" parent="WIyWlLk6GJQsqaUBKTNV-1" source="3JCBX3vueUwo4qNt-_7R-0" target="3JCBX3vueUwo4qNt-_7R-1">
          <mxGeometry relative="1" as="geometry" />
        </mxCell>
        <mxCell id="3JCBX3vueUwo4qNt-_7R-0" value="เริ่ม" style="strokeWidth=2;html=1;shape=mxgraph.flowchart.start_1;whiteSpace=wrap;" vertex="1" parent="WIyWlLk6GJQsqaUBKTNV-1">
          <mxGeometry x="364" y="30" width="100" height="60" as="geometry" />
        </mxCell>
        <mxCell id="3JCBX3vueUwo4qNt-_7R-7" value="" style="edgeStyle=orthogonalEdgeStyle;rounded=0;orthogonalLoop=1;jettySize=auto;html=1;" edge="1" parent="WIyWlLk6GJQsqaUBKTNV-1" source="3JCBX3vueUwo4qNt-_7R-1" target="3JCBX3vueUwo4qNt-_7R-2">
          <mxGeometry relative="1" as="geometry" />
        </mxCell>
        <mxCell id="3JCBX3vueUwo4qNt-_7R-1" value="กำหนดตัวแปรที่จะใช้" style="shape=parallelogram;html=1;strokeWidth=2;perimeter=parallelogramPerimeter;whiteSpace=wrap;rounded=1;arcSize=12;size=0.23;" vertex="1" parent="WIyWlLk6GJQsqaUBKTNV-1">
          <mxGeometry x="314" y="120" width="199" height="60" as="geometry" />
        </mxCell>
        <mxCell id="3JCBX3vueUwo4qNt-_7R-12" value="" style="edgeStyle=orthogonalEdgeStyle;rounded=0;orthogonalLoop=1;jettySize=auto;html=1;" edge="1" parent="WIyWlLk6GJQsqaUBKTNV-1" source="3JCBX3vueUwo4qNt-_7R-2" target="3JCBX3vueUwo4qNt-_7R-11">
          <mxGeometry relative="1" as="geometry" />
        </mxCell>
        <mxCell id="3JCBX3vueUwo4qNt-_7R-2" value="รับค่าตัวเลข" style="rounded=1;whiteSpace=wrap;html=1;absoluteArcSize=1;arcSize=14;strokeWidth=2;" vertex="1" parent="WIyWlLk6GJQsqaUBKTNV-1">
          <mxGeometry x="331" y="220" width="166" height="60" as="geometry" />
        </mxCell>
        <mxCell id="3JCBX3vueUwo4qNt-_7R-10" value="" style="edgeStyle=orthogonalEdgeStyle;rounded=0;orthogonalLoop=1;jettySize=auto;html=1;" edge="1" parent="WIyWlLk6GJQsqaUBKTNV-1" source="3JCBX3vueUwo4qNt-_7R-22" target="3JCBX3vueUwo4qNt-_7R-5">
          <mxGeometry relative="1" as="geometry">
            <mxPoint x="414" y="680" as="sourcePoint" />
          </mxGeometry>
        </mxCell>
        <mxCell id="3JCBX3vueUwo4qNt-_7R-5" value="จบ" style="strokeWidth=2;html=1;shape=mxgraph.flowchart.start_1;whiteSpace=wrap;" vertex="1" parent="WIyWlLk6GJQsqaUBKTNV-1">
          <mxGeometry x="364" y="790" width="100" height="60" as="geometry" />
        </mxCell>
        <mxCell id="3JCBX3vueUwo4qNt-_7R-30" value="" style="edgeStyle=orthogonalEdgeStyle;rounded=0;orthogonalLoop=1;jettySize=auto;html=1;" edge="1" parent="WIyWlLk6GJQsqaUBKTNV-1" source="3JCBX3vueUwo4qNt-_7R-11" target="3JCBX3vueUwo4qNt-_7R-14">
          <mxGeometry relative="1" as="geometry" />
        </mxCell>
        <mxCell id="3JCBX3vueUwo4qNt-_7R-11" value="มากกว่าหรือ&lt;br&gt;เท่ากับ 2 ไหม ?" style="strokeWidth=2;html=1;shape=mxgraph.flowchart.decision;whiteSpace=wrap;" vertex="1" parent="WIyWlLk6GJQsqaUBKTNV-1">
          <mxGeometry x="364" y="325" width="100" height="100" as="geometry" />
        </mxCell>
        <mxCell id="3JCBX3vueUwo4qNt-_7R-14" value="กับให้ค่า ที่จะคูณ เท่ากับ 1" style="rounded=1;whiteSpace=wrap;html=1;absoluteArcSize=1;arcSize=14;strokeWidth=2;" vertex="1" parent="WIyWlLk6GJQsqaUBKTNV-1">
          <mxGeometry x="331" y="490" width="166" height="60" as="geometry" />
        </mxCell>
        <mxCell id="3JCBX3vueUwo4qNt-_7R-22" value="" style="verticalLabelPosition=bottom;verticalAlign=top;html=1;shape=mxgraph.flowchart.on-page_reference;" vertex="1" parent="WIyWlLk6GJQsqaUBKTNV-1">
          <mxGeometry x="396" y="720" width="36" height="30" as="geometry" />
        </mxCell>
        <mxCell id="3JCBX3vueUwo4qNt-_7R-31" value="แสดงว่าเป็น จำนวนเต็มบวก" style="rounded=1;whiteSpace=wrap;html=1;absoluteArcSize=1;arcSize=14;strokeWidth=2;" vertex="1" parent="WIyWlLk6GJQsqaUBKTNV-1">
          <mxGeometry x="560" y="410" width="166" height="60" as="geometry" />
        </mxCell>
      </root>
    </mxGraphModel>
  </diagram>
</mxfile>
